<svg width="103" height="38" viewBox="0 0 103 38" fill="none" xmlns="http://www.w3.org/2000/svg">
<path d="M27.7806 28.0842H32.6464V1.7851H27.7806V28.0842Z" fill="white"/>
<path d="M35.1708 28.0842H40.0367V8.39255H35.1708V28.0842ZM37.6403 6.0467C39.3416 6.0467 40.6312 4.76634 40.6312 3.14017C40.6312 1.50472 39.3416 0.224365 37.6403 0.224365C35.9026 0.224365 34.6495 1.50472 34.6495 3.14017C34.6495 4.76634 35.9026 6.0467 37.6403 6.0467Z" fill="white"/>
<path d="M41.308 18.2056C41.308 24.243 45.3141 28.3646 50.1799 28.3646C53.0976 28.3646 55.2928 26.944 56.4721 25.3832V37.458H61.3756V8.39258H56.4721V10.9533C55.2928 9.42991 53.1708 8.11212 50.2806 8.11212C45.3141 8.11212 41.308 12.1589 41.308 18.2056ZM56.4721 18.2336C56.4721 22.0374 53.9027 24.028 51.3599 24.028C48.8538 24.028 46.2836 22.0094 46.2836 18.2056C46.2836 14.4018 48.8538 12.4486 51.3599 12.4486C53.9027 12.4486 56.4721 14.4393 56.4721 18.2336Z" fill="white"/>
<path d="M82.0544 8.39258H77.152V19.2337C77.152 22.3926 75.4792 24.1028 72.8357 24.1028C70.2652 24.1028 68.5635 22.3926 68.5635 19.2337V8.39258H63.6889V19.944C63.6889 25.3458 66.9267 28.3271 71.4086 28.3271C73.8146 28.3271 75.9356 27.2617 77.152 25.5981V28.0841H82.0544V8.39258Z" fill="white"/>
<path d="M92.8567 12.1589C95.3542 12.1589 97.3756 13.7944 97.4486 16.3925H88.3018C88.6771 13.6916 90.5248 12.1589 92.8567 12.1589ZM102.004 21.8972H96.7536C96.1222 23.215 94.9789 24.2804 92.8845 24.2804C90.4518 24.2804 88.5034 22.6449 88.2659 19.729H102.351C102.452 19.0935 102.488 18.4486 102.488 17.8131C102.488 11.9439 98.5549 8.07471 92.9945 8.07471C87.287 8.07471 83.3264 12.0187 83.3264 18.2337C83.3264 24.4206 87.3971 28.4019 92.9945 28.4019C97.7591 28.4019 100.961 25.5234 102.004 21.8972Z" fill="white"/>
<path d="M14.2073 20.3645C16.723 20.3645 18.7622 18.2808 18.7622 15.7104C18.7622 13.1399 16.723 11.0561 14.2073 11.0561C11.6919 11.0561 9.65247 13.1399 9.65247 15.7104C9.65247 18.2808 11.6919 20.3645 14.2073 20.3645Z" fill="white"/>
<path fill-rule="evenodd" clip-rule="evenodd" d="M14.2073 2.00934C20.0976 2.00934 25.1007 5.89723 26.9025 11.2991H20.8476C19.4299 9.08422 16.9879 7.61681 14.2073 7.61681C9.82622 7.61681 6.27742 11.243 6.27742 15.7104C6.27742 20.187 9.82622 23.8132 14.2073 23.8132C16.9879 23.8132 19.4299 22.3459 20.8476 20.1309H26.9025C25.1007 25.5328 20.0976 29.4207 14.2073 29.4207C6.79883 29.4207 0.798828 23.2804 0.798828 15.7104C0.798828 8.14956 6.79883 2.00934 14.2073 2.00934Z" fill="#91BD1E"/>
</svg>
