<svg width="143" height="53" viewBox="0 0 143 53" fill="none" xmlns="http://www.w3.org/2000/svg">
<path d="M38.079 39.3903H44.912V2.45844H38.079V39.3903Z" fill="#0095A8"/>
<path d="M48.4571 39.3903H55.2903V11.7373H48.4571V39.3903ZM51.925 8.44304C54.3141 8.44304 56.1251 6.64503 56.1251 4.36139C56.1251 2.06473 54.3141 0.266724 51.925 0.266724C49.4847 0.266724 47.725 2.06473 47.725 4.36139C47.725 6.64503 49.4847 8.44304 51.925 8.44304Z" fill="#0095A8"/>
<path d="M57.0755 25.5178C57.0755 33.9962 62.7013 39.784 69.5344 39.784C73.6317 39.784 76.7144 37.7891 78.3704 35.5972V52.554H85.2565V11.7373H78.3704V15.3334C76.7144 13.1941 73.7345 11.3435 69.6757 11.3435C62.7013 11.3435 57.0755 17.0264 57.0755 25.5178ZM78.3704 25.5572C78.3704 30.8988 74.7623 33.6943 71.1914 33.6943C67.6721 33.6943 64.0628 30.8594 64.0628 25.5178C64.0628 20.1762 67.6721 17.4333 71.1914 17.4333C74.7623 17.4333 78.3704 20.2287 78.3704 25.5572Z" fill="#0095A8"/>
<path d="M114.296 11.7374H107.411V26.9615C107.411 31.3976 105.062 33.7993 101.35 33.7993C97.7403 33.7993 95.3505 31.3976 95.3505 26.9615V11.7374H88.5051V27.959C88.5051 35.5449 93.0519 39.7315 99.3459 39.7315C102.725 39.7315 105.703 38.2354 107.411 35.8992V39.3902H114.296V11.7374Z" fill="#0095A8"/>
<path d="M129.465 17.0264C132.973 17.0264 135.811 19.3231 135.914 22.9717H123.069C123.596 19.1787 126.191 17.0264 129.465 17.0264ZM142.31 30.7019H134.938C134.051 32.5525 132.446 34.0486 129.504 34.0486C126.088 34.0486 123.352 31.7519 123.019 27.6571H142.798C142.94 26.7646 142.99 25.8591 142.99 24.9666C142.99 16.7245 137.467 11.291 129.659 11.291C121.644 11.291 116.082 16.8295 116.082 25.5572C116.082 34.2455 121.798 39.8364 129.659 39.8364C136.35 39.8364 140.846 35.7942 142.31 30.7019Z" fill="#0095A8"/>
<path d="M19.0181 28.5496C22.5507 28.5496 25.4145 25.6234 25.4145 22.0137C25.4145 18.404 22.5507 15.4777 19.0181 15.4777C15.4856 15.4777 12.6216 18.404 12.6216 22.0137C12.6216 25.6234 15.4856 28.5496 19.0181 28.5496Z" fill="#0095A8"/>
<path fill-rule="evenodd" clip-rule="evenodd" d="M19.0181 2.77332C27.2898 2.77332 34.3156 8.23309 36.8459 15.819H28.343C26.3522 12.7086 22.9228 10.6479 19.0181 10.6479C12.8657 10.6479 7.88207 15.7402 7.88207 22.0137C7.88207 28.3002 12.8657 33.3925 19.0181 33.3925C22.9228 33.3925 26.3522 31.332 28.343 28.2214H36.8459C34.3156 35.8073 27.2898 41.2671 19.0181 41.2671C8.61429 41.2671 0.188477 32.6444 0.188477 22.0137C0.188477 11.396 8.61429 2.77332 19.0181 2.77332Z" fill="#91BD1E"/>
</svg>
