<svg width="231" height="83" viewBox="0 0 231 83" fill="none" xmlns="http://www.w3.org/2000/svg">
<g clip-path="url(#clip0_4_182)">
<path d="M126.079 58.3903H132.912V21.4584H126.079V58.3903Z" fill="#0095A8"/>
<path d="M136.457 58.3903H143.29V30.7373H136.457V58.3903ZM139.925 27.443C142.314 27.443 144.125 25.645 144.125 23.3614C144.125 21.0647 142.314 19.2667 139.925 19.2667C137.485 19.2667 135.725 21.0647 135.725 23.3614C135.725 25.645 137.485 27.443 139.925 27.443Z" fill="#0095A8"/>
<path d="M145.076 44.5178C145.076 52.9962 150.701 58.784 157.534 58.784C161.632 58.784 164.714 56.7891 166.37 54.5972V71.554H173.257V30.7373H166.37V34.3334C164.714 32.1941 161.735 30.3435 157.676 30.3435C150.701 30.3435 145.076 36.0264 145.076 44.5178ZM166.37 44.5572C166.37 49.8988 162.762 52.6943 159.191 52.6943C155.672 52.6943 152.063 49.8594 152.063 44.5178C152.063 39.1762 155.672 36.4333 159.191 36.4333C162.762 36.4333 166.37 39.2287 166.37 44.5572Z" fill="#0095A8"/>
<path d="M202.296 30.7374H195.411V45.9615C195.411 50.3976 193.062 52.7993 189.35 52.7993C185.74 52.7993 183.351 50.3976 183.351 45.9615V30.7374H176.505V46.959C176.505 54.5449 181.052 58.7315 187.346 58.7315C190.725 58.7315 193.703 57.2354 195.411 54.8992V58.3902H202.296V30.7374Z" fill="#0095A8"/>
<path d="M217.465 36.0264C220.973 36.0264 223.811 38.3231 223.914 41.9717H211.069C211.596 38.1787 214.191 36.0264 217.465 36.0264ZM230.31 49.7019H222.938C222.051 51.5525 220.446 53.0486 217.504 53.0486C214.088 53.0486 211.352 50.7519 211.019 46.6571H230.798C230.94 45.7646 230.99 44.8591 230.99 43.9666C230.99 35.7245 225.467 30.291 217.659 30.291C209.644 30.291 204.082 35.8295 204.082 44.5572C204.082 53.2455 209.798 58.8364 217.659 58.8364C224.35 58.8364 228.846 54.7942 230.31 49.7019Z" fill="#0095A8"/>
<path d="M107.018 47.5496C110.551 47.5496 113.414 44.6234 113.414 41.0137C113.414 37.404 110.551 34.4777 107.018 34.4777C103.486 34.4777 100.622 37.404 100.622 41.0137C100.622 44.6234 103.486 47.5496 107.018 47.5496Z" fill="#0095A8"/>
<path fill-rule="evenodd" clip-rule="evenodd" d="M107.018 21.7733C115.29 21.7733 122.316 27.2331 124.846 34.819H116.343C114.352 31.7086 110.923 29.6479 107.018 29.6479C100.866 29.6479 95.8821 34.7402 95.8821 41.0137C95.8821 47.3002 100.866 52.3925 107.018 52.3925C110.923 52.3925 114.352 50.332 116.343 47.2214H124.846C122.316 54.8073 115.29 60.2671 107.018 60.2671C96.6143 60.2671 88.1885 51.6444 88.1885 41.0137C88.1885 30.396 96.6143 21.7733 107.018 21.7733Z" fill="#91BD1E"/>
<path d="M39.8556 82.1453C61.8673 82.1453 79.7113 63.9121 79.7113 41.4204C79.7113 18.9289 61.8673 0.69574 39.8556 0.69574C17.8439 0.69574 0 18.9289 0 41.4204C0 63.9121 17.8439 82.1453 39.8556 82.1453Z" fill="#0095A8"/>
<path fill-rule="evenodd" clip-rule="evenodd" d="M39.5731 48.0088C37.8648 48.665 36.028 48.9931 34.0501 48.9931H27.3839V64.6243H20.1526V41.6041H27.3839H30.0299H32.9583L39.5731 48.0088Z" fill="#91BD1E"/>
<path fill-rule="evenodd" clip-rule="evenodd" d="M34.0501 17.2192C38.3271 17.2192 42.0007 18.7679 45.0318 21.8783C48.0888 25.002 49.6173 28.7556 49.6173 33.1259C49.6173 36.3151 48.808 39.15 47.1897 41.6567L41.7567 36.3939C42.1676 35.3834 42.3732 34.294 42.3732 33.1259C42.3732 30.7897 41.5639 28.7818 39.9327 27.115C38.3016 25.4481 36.3492 24.6214 34.0501 24.6214H30.0298H29.6059L21.9766 17.2192H34.0501Z" fill="#91BD1E"/>
<path fill-rule="evenodd" clip-rule="evenodd" d="M20.1526 40.2918V17.2192L52.3402 48.4157V17.7443H59.5715V65.6217L27.3839 34.4253V40.2918H20.1526Z" fill="#FEFEFE"/>
</g>
<defs>
<clipPath id="clip0_4_182">
<rect width="231" height="83" fill="white"/>
</clipPath>
</defs>
</svg>
