<svg width="57" height="58" viewBox="0 0 57 58" fill="none" xmlns="http://www.w3.org/2000/svg">
<path d="M28.3811 58C44.0556 58 56.7622 45.0163 56.7622 29C56.7622 12.9838 44.0556 0 28.3811 0C12.7066 0 0 12.9838 0 29C0 45.0163 12.7066 58 28.3811 58Z" fill="white"/>
<path fill-rule="evenodd" clip-rule="evenodd" d="M28.18 33.6915C26.9635 34.1588 25.6555 34.3925 24.247 34.3925H19.5001V45.5234H14.3507V29.1308H19.5001H21.3842H23.4696L28.18 33.6915Z" fill="#91BD1E"/>
<path fill-rule="evenodd" clip-rule="evenodd" d="M24.247 11.7664C27.2927 11.7664 29.9086 12.8692 32.0671 15.0841C34.244 17.3085 35.3324 19.9814 35.3324 23.0935C35.3324 25.3645 34.7561 27.3832 33.6037 29.1682L29.7348 25.4206C30.0275 24.701 30.1739 23.9252 30.1739 23.0935C30.1739 21.4299 29.5976 20 28.436 18.8131C27.2745 17.6261 25.8842 17.0374 24.247 17.0374H21.3842H21.0823L15.6495 11.7664H24.247Z" fill="#91BD1E"/>
<path fill-rule="evenodd" clip-rule="evenodd" d="M14.3507 28.1963V11.7664L37.2714 33.9813V12.1402H42.4208V46.2337L19.5001 24.0188V28.1963H14.3507Z" fill="#0095A8"/>
</svg>
