<svg width="80" height="83" viewBox="0 0 80 83" fill="none" xmlns="http://www.w3.org/2000/svg">
<path d="M39.8556 82.1453C61.8673 82.1453 79.7113 63.9121 79.7113 41.4204C79.7113 18.9289 61.8673 0.69574 39.8556 0.69574C17.8439 0.69574 0 18.9289 0 41.4204C0 63.9121 17.8439 82.1453 39.8556 82.1453Z" fill="#0095A8"/>
<path fill-rule="evenodd" clip-rule="evenodd" d="M39.5731 48.0088C37.8648 48.665 36.028 48.9931 34.0501 48.9931H27.3839V64.6243H20.1526V41.6041H27.3839H30.0299H32.9583L39.5731 48.0088Z" fill="#91BD1E"/>
<path fill-rule="evenodd" clip-rule="evenodd" d="M34.0501 17.2192C38.3271 17.2192 42.0007 18.7679 45.0318 21.8783C48.0888 25.002 49.6173 28.7556 49.6173 33.1259C49.6173 36.3151 48.808 39.15 47.1897 41.6567L41.7567 36.3939C42.1676 35.3834 42.3732 34.294 42.3732 33.1259C42.3732 30.7897 41.5639 28.7818 39.9327 27.115C38.3016 25.4481 36.3492 24.6214 34.0501 24.6214H30.0298H29.6059L21.9766 17.2192H34.0501Z" fill="#91BD1E"/>
<path fill-rule="evenodd" clip-rule="evenodd" d="M20.1526 40.2918V17.2192L52.3402 48.4157V17.7443H59.5715V65.6217L27.3839 34.4253V40.2918H20.1526Z" fill="#FEFEFE"/>
</svg>
